<svg width="748" height="235" viewBox="0 0 748 235" fill="none" xmlns="http://www.w3.org/2000/svg">
<path d="M536.382 53.1078L747.589 53.0596C744.207 66.5287 741.216 83.8242 738.441 97.6939L663.671 97.831C662.915 104.863 660.14 117.18 658.719 124.337L648.791 173.746C645.534 193.123 640.523 215.243 636.618 234.737L573.722 234.831L601.763 97.8959C576.945 97.713 552.127 97.7189 527.309 97.915C530.06 83.2109 532.993 67.6665 536.382 53.1078Z" fill="#121212"/>
<path d="M361.958 53.1058L424.34 53.0967C414.876 98.4009 406.352 145.396 396.306 190.41C439.329 191.208 484.063 190.447 527.276 190.522C523.82 203.151 520.496 221.681 517.912 234.784L325.288 234.799C336.419 175.049 349.961 112.978 361.958 53.1058Z" fill="#121212"/>
<path d="M325.717 42.8096C325.972 43.2276 326.228 43.6457 326.483 44.0637C316.089 95.9367 297.342 186.974 288.197 234.807L223.786 234.84L223.16 234.355C222.043 231.956 250.639 94.6942 253.561 79.1283C274.963 68.9102 305.584 54.5867 325.717 42.8096Z" fill="#121212"/>
<path d="M171.06 95.9531L172.144 96.3595C172.782 99.0539 147.613 221.18 144.853 234.83L80.771 234.828L79.4732 234.258C78.8127 230.211 99.5686 132.174 102.109 120.592C121.922 112.019 149.377 105.041 171.06 95.9531Z" fill="#121212"/>
<path d="M359.906 0C328.262 17.3077 314.527 25.7202 279.624 39.4727C276.991 40.352 272.639 41.9274 270.063 42.5257C253.183 49.7727 225.59 58.3872 207.984 63.5614C181.486 71.3491 151.223 79.6902 123.932 85.891L121.3 86.4839C116.885 88.4545 87.9532 95.1413 82.1164 96.556C54.6971 103.145 27.3238 109.926 0 116.898L12.5777 51.648C40.626 48.568 76.1235 41.6537 105.069 37.4194L205.563 21.7865C222.806 19.1237 243.144 15.6097 260.242 13.7796C264.52 12.5738 276.752 11.08 281.692 10.3653L287.934 9.45329C302.5 7.34114 317.083 5.3418 331.681 3.45546C340.635 2.32192 351.285 1.44018 359.906 0Z" fill="#121212"/>
</svg>
